<?xml version="1.0" encoding="UTF-8"?>
<svg width="240px" height="48px" viewBox="0 0 240 48" version="1.1" xmlns="http://www.w3.org/2000/svg">
    <title>MyAutomatedAssistant Logo</title>
    <defs>
        <linearGradient id="logoGradient" x1="0%" y1="0%" x2="100%" y2="100%">
            <stop offset="0%" style="stop-color:#6366F1;stop-opacity:1" />
            <stop offset="100%" style="stop-color:#8B5CF6;stop-opacity:1" />
        </linearGradient>
    </defs>
    <g stroke="none" stroke-width="1" fill="none" fill-rule="evenodd">
        <g transform="translate(0, 8)">
            <rect fill="url(#logoGradient)" x="0" y="0" width="32" height="32" rx="8"></rect>
            <path d="M16,7 C20.9706,7 25,11.0294 25,16 C25,20.9706 20.9706,25 16,25 C11.0294,25 7,20.9706 7,16 C7,11.0294 11.0294,7 16,7 Z M16,9 C12.134,9 9,12.134 9,16 C9,19.866 12.134,23 16,23 C19.866,23 23,19.866 23,16 C23,12.134 19.866,9 16,9 Z" fill="#FFFFFF" fill-rule="nonzero"></path>
            <path d="M16,12 C16.5523,12 17,12.4477 17,13 L17,15 L19,15 C19.5523,15 20,15.4477 20,16 C20,16.5523 19.5523,17 19,17 L17,17 L17,19 C17,19.5523 16.5523,20 16,20 C15.4477,20 15,19.5523 15,19 L15,17 L13,17 C12.4477,17 12,16.5523 12,16 C12,15.4477 12.4477,15 13,15 L15,15 L15,13 C15,12.4477 15.4477,12 16,12 Z" fill="#FFFFFF"></path>
        </g>
        <text font-family="'Inter', sans-serif" font-size="18" font-weight="600" fill="#1F2937" x="40" y="28">
            <tspan fill="#6366F1">My</tspan><tspan>Automated</tspan><tspan fill="#8B5CF6">Assistant</tspan>
        </text>
    </g>
</svg>
